<mxfile host="app.diagrams.net" modified="2022-12-08T03:16:21.557Z" agent="5.0 (Windows NT 10.0; Win64; x64) AppleWebKit/537.36 (KHTML, like Gecko) Chrome/108.0.0.0 Safari/537.36" etag="Yh0Yu37OunlcIz0MQoSo" version="20.6.0" type="github">
  <diagram id="C5RBs43oDa-KdzZeNtuy" name="Page-1">
    <mxGraphModel dx="955" dy="703" grid="1" gridSize="10" guides="1" tooltips="1" connect="1" arrows="1" fold="1" page="1" pageScale="1" pageWidth="827" pageHeight="1169" math="0" shadow="0">
      <root>
        <mxCell id="WIyWlLk6GJQsqaUBKTNV-0" />
        <mxCell id="WIyWlLk6GJQsqaUBKTNV-1" parent="WIyWlLk6GJQsqaUBKTNV-0" />
        <mxCell id="WIyWlLk6GJQsqaUBKTNV-2" value="" style="rounded=0;html=1;jettySize=auto;orthogonalLoop=1;fontSize=11;endArrow=block;endFill=0;endSize=8;strokeWidth=1;shadow=0;labelBackgroundColor=none;edgeStyle=orthogonalEdgeStyle;" parent="WIyWlLk6GJQsqaUBKTNV-1" source="WIyWlLk6GJQsqaUBKTNV-3" edge="1">
          <mxGeometry relative="1" as="geometry">
            <mxPoint x="220" y="170" as="targetPoint" />
          </mxGeometry>
        </mxCell>
        <mxCell id="WIyWlLk6GJQsqaUBKTNV-3" value="&lt;b&gt;Beamforming&lt;/b&gt;&lt;br&gt;in space include obastacle" style="rounded=1;whiteSpace=wrap;html=1;fontSize=12;glass=0;strokeWidth=1;shadow=0;" parent="WIyWlLk6GJQsqaUBKTNV-1" vertex="1">
          <mxGeometry x="165" y="80" width="110" height="50" as="geometry" />
        </mxCell>
        <mxCell id="WIyWlLk6GJQsqaUBKTNV-11" value="Receive signal" style="rounded=1;whiteSpace=wrap;html=1;fontSize=12;glass=0;strokeWidth=1;shadow=0;" parent="WIyWlLk6GJQsqaUBKTNV-1" vertex="1">
          <mxGeometry x="175" y="650" width="90" height="30" as="geometry" />
        </mxCell>
        <mxCell id="WTjvKpdJ9N-15G3KlUGg-1" value="Receiver send the signal to Two Transmitter" style="rounded=0;whiteSpace=wrap;html=1;fontSize=10;" vertex="1" parent="WIyWlLk6GJQsqaUBKTNV-1">
          <mxGeometry x="160" y="170" width="120" height="40" as="geometry" />
        </mxCell>
        <mxCell id="WTjvKpdJ9N-15G3KlUGg-6" value="" style="edgeStyle=orthogonalEdgeStyle;rounded=0;orthogonalLoop=1;jettySize=auto;html=1;" edge="1" parent="WIyWlLk6GJQsqaUBKTNV-1" source="WTjvKpdJ9N-15G3KlUGg-2" target="WTjvKpdJ9N-15G3KlUGg-5">
          <mxGeometry relative="1" as="geometry" />
        </mxCell>
        <mxCell id="WTjvKpdJ9N-15G3KlUGg-2" value="Compare the received signal power of both device." style="rounded=0;whiteSpace=wrap;html=1;fontSize=10;" vertex="1" parent="WIyWlLk6GJQsqaUBKTNV-1">
          <mxGeometry x="160" y="250" width="120" height="50" as="geometry" />
        </mxCell>
        <mxCell id="WTjvKpdJ9N-15G3KlUGg-4" value="" style="endArrow=classic;html=1;rounded=0;exitX=0.5;exitY=1;exitDx=0;exitDy=0;entryX=0.5;entryY=0;entryDx=0;entryDy=0;" edge="1" parent="WIyWlLk6GJQsqaUBKTNV-1" source="WTjvKpdJ9N-15G3KlUGg-1" target="WTjvKpdJ9N-15G3KlUGg-2">
          <mxGeometry width="50" height="50" relative="1" as="geometry">
            <mxPoint x="270" y="260" as="sourcePoint" />
            <mxPoint x="320" y="210" as="targetPoint" />
          </mxGeometry>
        </mxCell>
        <mxCell id="WTjvKpdJ9N-15G3KlUGg-18" value="&#xa;&lt;span style=&quot;color: rgb(0, 0, 0); font-family: Helvetica; font-size: 10px; font-style: normal; font-variant-ligatures: normal; font-variant-caps: normal; font-weight: 400; letter-spacing: normal; orphans: 2; text-align: center; text-indent: 0px; text-transform: none; widows: 2; word-spacing: 0px; -webkit-text-stroke-width: 0px; background-color: rgb(248, 249, 250); text-decoration-thickness: initial; text-decoration-style: initial; text-decoration-color: initial; float: none; display: inline !important;&quot;&gt;Use only&lt;/span&gt;&lt;br style=&quot;color: rgb(0, 0, 0); font-family: Helvetica; font-size: 10px; font-style: normal; font-variant-ligatures: normal; font-variant-caps: normal; font-weight: 400; letter-spacing: normal; orphans: 2; text-align: center; text-indent: 0px; text-transform: none; widows: 2; word-spacing: 0px; -webkit-text-stroke-width: 0px; background-color: rgb(248, 249, 250); text-decoration-thickness: initial; text-decoration-style: initial; text-decoration-color: initial;&quot;&gt;&lt;span style=&quot;color: rgb(0, 0, 0); font-family: Helvetica; font-size: 10px; font-style: normal; font-variant-ligatures: normal; font-variant-caps: normal; font-weight: 400; letter-spacing: normal; orphans: 2; text-align: center; text-indent: 0px; text-transform: none; widows: 2; word-spacing: 0px; -webkit-text-stroke-width: 0px; background-color: rgb(248, 249, 250); text-decoration-thickness: initial; text-decoration-style: initial; text-decoration-color: initial; float: none; display: inline !important;&quot;&gt;selected device&lt;/span&gt;&#xa;&#xa;" style="edgeStyle=none;rounded=0;orthogonalLoop=1;jettySize=auto;html=1;fontSize=10;" edge="1" parent="WIyWlLk6GJQsqaUBKTNV-1" source="WTjvKpdJ9N-15G3KlUGg-5" target="WTjvKpdJ9N-15G3KlUGg-16">
          <mxGeometry x="0.2" y="-40" relative="1" as="geometry">
            <mxPoint as="offset" />
          </mxGeometry>
        </mxCell>
        <mxCell id="WTjvKpdJ9N-15G3KlUGg-5" value="Choose&lt;br style=&quot;font-size: 10px;&quot;&gt;one device that received the larger signal" style="rhombus;whiteSpace=wrap;html=1;rounded=0;fontSize=10;" vertex="1" parent="WIyWlLk6GJQsqaUBKTNV-1">
          <mxGeometry x="150" y="330" width="140" height="60" as="geometry" />
        </mxCell>
        <mxCell id="WTjvKpdJ9N-15G3KlUGg-20" value="" style="edgeStyle=none;rounded=0;orthogonalLoop=1;jettySize=auto;html=1;fontSize=10;dashed=1;dashPattern=1 1;exitX=0;exitY=0.5;exitDx=0;exitDy=0;" edge="1" parent="WIyWlLk6GJQsqaUBKTNV-1" source="WTjvKpdJ9N-15G3KlUGg-16" target="WTjvKpdJ9N-15G3KlUGg-19">
          <mxGeometry relative="1" as="geometry" />
        </mxCell>
        <mxCell id="WTjvKpdJ9N-15G3KlUGg-22" value="" style="edgeStyle=none;rounded=0;orthogonalLoop=1;jettySize=auto;html=1;fontSize=8;" edge="1" parent="WIyWlLk6GJQsqaUBKTNV-1" source="WTjvKpdJ9N-15G3KlUGg-16" target="WTjvKpdJ9N-15G3KlUGg-21">
          <mxGeometry relative="1" as="geometry" />
        </mxCell>
        <mxCell id="WTjvKpdJ9N-15G3KlUGg-16" value="Calculate the phase difference of the signals received by the two rx antennas of the selected device" style="whiteSpace=wrap;html=1;fontSize=10;rounded=0;" vertex="1" parent="WIyWlLk6GJQsqaUBKTNV-1">
          <mxGeometry x="160" y="440" width="120" height="70" as="geometry" />
        </mxCell>
        <mxCell id="WTjvKpdJ9N-15G3KlUGg-23" style="edgeStyle=none;rounded=0;orthogonalLoop=1;jettySize=auto;html=1;entryX=0;entryY=0.5;entryDx=0;entryDy=0;fontSize=8;dashed=1;dashPattern=1 1;" edge="1" parent="WIyWlLk6GJQsqaUBKTNV-1" source="WTjvKpdJ9N-15G3KlUGg-19" target="WTjvKpdJ9N-15G3KlUGg-21">
          <mxGeometry relative="1" as="geometry" />
        </mxCell>
        <mxCell id="WTjvKpdJ9N-15G3KlUGg-19" value="Phase difference Value" style="ellipse;whiteSpace=wrap;html=1;fontSize=8;rounded=0;fillColor=#f5f5f5;strokeColor=#666666;fontColor=#333333;" vertex="1" parent="WIyWlLk6GJQsqaUBKTNV-1">
          <mxGeometry x="60" y="512.5" width="70" height="37.5" as="geometry" />
        </mxCell>
        <mxCell id="WTjvKpdJ9N-15G3KlUGg-24" value="" style="edgeStyle=none;rounded=0;orthogonalLoop=1;jettySize=auto;html=1;fontSize=8;endArrow=block;endFill=0;" edge="1" parent="WIyWlLk6GJQsqaUBKTNV-1" source="WTjvKpdJ9N-15G3KlUGg-21" target="WIyWlLk6GJQsqaUBKTNV-11">
          <mxGeometry relative="1" as="geometry" />
        </mxCell>
        <mxCell id="WTjvKpdJ9N-15G3KlUGg-21" value="By shifting the phase as much as the phase difference value, the signal is transmitted toward the receiver." style="whiteSpace=wrap;html=1;fontSize=10;rounded=0;" vertex="1" parent="WIyWlLk6GJQsqaUBKTNV-1">
          <mxGeometry x="160" y="550" width="120" height="70" as="geometry" />
        </mxCell>
        <mxCell id="WTjvKpdJ9N-15G3KlUGg-25" value="Synchronize&lt;br&gt;antennas" style="endArrow=classic;html=1;rounded=0;fontSize=8;dashed=1;" edge="1" parent="WIyWlLk6GJQsqaUBKTNV-1">
          <mxGeometry x="1" y="30" width="50" height="50" relative="1" as="geometry">
            <mxPoint x="220" y="410" as="sourcePoint" />
            <mxPoint x="300" y="410" as="targetPoint" />
            <mxPoint x="30" y="30" as="offset" />
          </mxGeometry>
        </mxCell>
        <mxCell id="WTjvKpdJ9N-15G3KlUGg-26" value="Synchronize&lt;br&gt;antennas" style="endArrow=classic;html=1;rounded=0;fontSize=8;dashed=1;" edge="1" parent="WIyWlLk6GJQsqaUBKTNV-1">
          <mxGeometry x="1" y="30" width="50" height="50" relative="1" as="geometry">
            <mxPoint x="220" y="530.91" as="sourcePoint" />
            <mxPoint x="300" y="530.91" as="targetPoint" />
            <mxPoint x="30" y="30" as="offset" />
          </mxGeometry>
        </mxCell>
        <mxCell id="WTjvKpdJ9N-15G3KlUGg-46" style="edgeStyle=none;rounded=0;orthogonalLoop=1;jettySize=auto;html=1;exitX=1;exitY=0.5;exitDx=0;exitDy=0;fontSize=8;endArrow=block;endFill=0;" edge="1" parent="WIyWlLk6GJQsqaUBKTNV-1" source="WTjvKpdJ9N-15G3KlUGg-28" target="WTjvKpdJ9N-15G3KlUGg-30">
          <mxGeometry relative="1" as="geometry" />
        </mxCell>
        <mxCell id="WTjvKpdJ9N-15G3KlUGg-28" value="&lt;b&gt;Beamforming&lt;/b&gt;&lt;br&gt;in space include obastacle" style="rounded=1;whiteSpace=wrap;html=1;fontSize=12;glass=0;strokeWidth=1;shadow=0;" vertex="1" parent="WIyWlLk6GJQsqaUBKTNV-1">
          <mxGeometry x="20" y="780" width="110" height="50" as="geometry" />
        </mxCell>
        <mxCell id="WTjvKpdJ9N-15G3KlUGg-29" value="Receive signal" style="rounded=1;whiteSpace=wrap;html=1;fontSize=12;glass=0;strokeWidth=1;shadow=0;" vertex="1" parent="WIyWlLk6GJQsqaUBKTNV-1">
          <mxGeometry x="185" y="910" width="90" height="30" as="geometry" />
        </mxCell>
        <mxCell id="WTjvKpdJ9N-15G3KlUGg-48" style="edgeStyle=none;rounded=0;orthogonalLoop=1;jettySize=auto;html=1;exitX=1;exitY=0.5;exitDx=0;exitDy=0;entryX=0;entryY=0.5;entryDx=0;entryDy=0;fontSize=8;endArrow=classic;endFill=1;" edge="1" parent="WIyWlLk6GJQsqaUBKTNV-1" source="WTjvKpdJ9N-15G3KlUGg-32" target="WTjvKpdJ9N-15G3KlUGg-35">
          <mxGeometry relative="1" as="geometry" />
        </mxCell>
        <mxCell id="WTjvKpdJ9N-15G3KlUGg-32" value="Compare the received signal power of both device." style="rounded=0;whiteSpace=wrap;html=1;fontSize=10;" vertex="1" parent="WIyWlLk6GJQsqaUBKTNV-1">
          <mxGeometry x="320" y="780" width="120" height="50" as="geometry" />
        </mxCell>
        <mxCell id="WTjvKpdJ9N-15G3KlUGg-34" value="&#xa;&lt;span style=&quot;color: rgb(0, 0, 0); font-family: Helvetica; font-size: 10px; font-style: normal; font-variant-ligatures: normal; font-variant-caps: normal; font-weight: 400; letter-spacing: normal; orphans: 2; text-align: center; text-indent: 0px; text-transform: none; widows: 2; word-spacing: 0px; -webkit-text-stroke-width: 0px; background-color: rgb(248, 249, 250); text-decoration-thickness: initial; text-decoration-style: initial; text-decoration-color: initial; float: none; display: inline !important;&quot;&gt;Use only&lt;/span&gt;&lt;br style=&quot;color: rgb(0, 0, 0); font-family: Helvetica; font-size: 10px; font-style: normal; font-variant-ligatures: normal; font-variant-caps: normal; font-weight: 400; letter-spacing: normal; orphans: 2; text-align: center; text-indent: 0px; text-transform: none; widows: 2; word-spacing: 0px; -webkit-text-stroke-width: 0px; background-color: rgb(248, 249, 250); text-decoration-thickness: initial; text-decoration-style: initial; text-decoration-color: initial;&quot;&gt;&lt;span style=&quot;color: rgb(0, 0, 0); font-family: Helvetica; font-size: 10px; font-style: normal; font-variant-ligatures: normal; font-variant-caps: normal; font-weight: 400; letter-spacing: normal; orphans: 2; text-align: center; text-indent: 0px; text-transform: none; widows: 2; word-spacing: 0px; -webkit-text-stroke-width: 0px; background-color: rgb(248, 249, 250); text-decoration-thickness: initial; text-decoration-style: initial; text-decoration-color: initial; float: none; display: inline !important;&quot;&gt;selected device&lt;/span&gt;&#xa;&#xa;" style="edgeStyle=none;rounded=0;orthogonalLoop=1;jettySize=auto;html=1;fontSize=10;" edge="1" parent="WIyWlLk6GJQsqaUBKTNV-1" source="WTjvKpdJ9N-15G3KlUGg-35" target="WTjvKpdJ9N-15G3KlUGg-38">
          <mxGeometry x="0.6364" y="-40" relative="1" as="geometry">
            <mxPoint as="offset" />
          </mxGeometry>
        </mxCell>
        <mxCell id="WTjvKpdJ9N-15G3KlUGg-35" value="Choose&lt;br style=&quot;font-size: 10px;&quot;&gt;one device that received the larger signal" style="rhombus;whiteSpace=wrap;html=1;rounded=0;fontSize=10;" vertex="1" parent="WIyWlLk6GJQsqaUBKTNV-1">
          <mxGeometry x="470" y="775" width="140" height="60" as="geometry" />
        </mxCell>
        <mxCell id="WTjvKpdJ9N-15G3KlUGg-36" value="" style="edgeStyle=none;rounded=0;orthogonalLoop=1;jettySize=auto;html=1;fontSize=10;dashed=1;dashPattern=1 1;exitX=0.5;exitY=1;exitDx=0;exitDy=0;" edge="1" parent="WIyWlLk6GJQsqaUBKTNV-1" source="WTjvKpdJ9N-15G3KlUGg-38" target="WTjvKpdJ9N-15G3KlUGg-40">
          <mxGeometry relative="1" as="geometry" />
        </mxCell>
        <mxCell id="WTjvKpdJ9N-15G3KlUGg-37" value="" style="edgeStyle=none;rounded=0;orthogonalLoop=1;jettySize=auto;html=1;fontSize=8;" edge="1" parent="WIyWlLk6GJQsqaUBKTNV-1" source="WTjvKpdJ9N-15G3KlUGg-38" target="WTjvKpdJ9N-15G3KlUGg-42">
          <mxGeometry relative="1" as="geometry" />
        </mxCell>
        <mxCell id="WTjvKpdJ9N-15G3KlUGg-38" value="Calculate the phase difference of the signals received by the two rx antennas of the selected device" style="whiteSpace=wrap;html=1;fontSize=10;rounded=0;" vertex="1" parent="WIyWlLk6GJQsqaUBKTNV-1">
          <mxGeometry x="480" y="890" width="120" height="70" as="geometry" />
        </mxCell>
        <mxCell id="WTjvKpdJ9N-15G3KlUGg-39" style="edgeStyle=none;rounded=0;orthogonalLoop=1;jettySize=auto;html=1;entryX=0.5;entryY=1;entryDx=0;entryDy=0;fontSize=8;dashed=1;dashPattern=1 1;" edge="1" parent="WIyWlLk6GJQsqaUBKTNV-1" source="WTjvKpdJ9N-15G3KlUGg-40" target="WTjvKpdJ9N-15G3KlUGg-42">
          <mxGeometry relative="1" as="geometry">
            <Array as="points">
              <mxPoint x="380" y="1030" />
            </Array>
          </mxGeometry>
        </mxCell>
        <mxCell id="WTjvKpdJ9N-15G3KlUGg-40" value="Phase difference Value" style="ellipse;whiteSpace=wrap;html=1;fontSize=8;rounded=0;fillColor=#f5f5f5;strokeColor=#666666;fontColor=#333333;" vertex="1" parent="WIyWlLk6GJQsqaUBKTNV-1">
          <mxGeometry x="505" y="1010" width="70" height="37.5" as="geometry" />
        </mxCell>
        <mxCell id="WTjvKpdJ9N-15G3KlUGg-41" value="" style="edgeStyle=none;rounded=0;orthogonalLoop=1;jettySize=auto;html=1;fontSize=8;endArrow=block;endFill=0;" edge="1" parent="WIyWlLk6GJQsqaUBKTNV-1" source="WTjvKpdJ9N-15G3KlUGg-42" target="WTjvKpdJ9N-15G3KlUGg-29">
          <mxGeometry relative="1" as="geometry" />
        </mxCell>
        <mxCell id="WTjvKpdJ9N-15G3KlUGg-42" value="By shifting the phase as much as the phase difference value, the signal is transmitted toward the receiver." style="whiteSpace=wrap;html=1;fontSize=10;rounded=0;" vertex="1" parent="WIyWlLk6GJQsqaUBKTNV-1">
          <mxGeometry x="320" y="890" width="120" height="70" as="geometry" />
        </mxCell>
        <mxCell id="WTjvKpdJ9N-15G3KlUGg-43" value="Synchronize&lt;br&gt;antennas" style="endArrow=classic;html=1;rounded=0;fontSize=8;dashed=1;" edge="1" parent="WIyWlLk6GJQsqaUBKTNV-1">
          <mxGeometry x="1" y="30" width="50" height="50" relative="1" as="geometry">
            <mxPoint x="540" y="860" as="sourcePoint" />
            <mxPoint x="620" y="860" as="targetPoint" />
            <mxPoint x="30" y="30" as="offset" />
          </mxGeometry>
        </mxCell>
        <mxCell id="WTjvKpdJ9N-15G3KlUGg-44" value="Synchronize&lt;br&gt;antennas" style="endArrow=classic;html=1;rounded=0;fontSize=8;dashed=1;" edge="1" parent="WIyWlLk6GJQsqaUBKTNV-1">
          <mxGeometry x="1" y="30" width="50" height="50" relative="1" as="geometry">
            <mxPoint x="470" y="930" as="sourcePoint" />
            <mxPoint x="440" y="990" as="targetPoint" />
            <mxPoint x="-30" y="-30" as="offset" />
            <Array as="points">
              <mxPoint x="470" y="990" />
            </Array>
          </mxGeometry>
        </mxCell>
        <mxCell id="WTjvKpdJ9N-15G3KlUGg-47" style="edgeStyle=none;rounded=0;orthogonalLoop=1;jettySize=auto;html=1;exitX=1;exitY=0.5;exitDx=0;exitDy=0;entryX=0;entryY=0.5;entryDx=0;entryDy=0;fontSize=8;endArrow=classic;endFill=1;" edge="1" parent="WIyWlLk6GJQsqaUBKTNV-1" source="WTjvKpdJ9N-15G3KlUGg-30" target="WTjvKpdJ9N-15G3KlUGg-32">
          <mxGeometry relative="1" as="geometry" />
        </mxCell>
        <mxCell id="WTjvKpdJ9N-15G3KlUGg-30" value="Receiver send the signal to Two Transmitter" style="rounded=0;whiteSpace=wrap;html=1;fontSize=10;" vertex="1" parent="WIyWlLk6GJQsqaUBKTNV-1">
          <mxGeometry x="170" y="785" width="120" height="40" as="geometry" />
        </mxCell>
      </root>
    </mxGraphModel>
  </diagram>
</mxfile>
